<mxfile host="app.diagrams.net" modified="2023-11-12T14:57:50.651Z" agent="Mozilla/5.0 (Macintosh; Intel Mac OS X 10_15_7) AppleWebKit/537.36 (KHTML, like Gecko) Chrome/119.0.0.0 Safari/537.36" etag="d4ohALa_dodWXUC72JSN" version="22.1.0" type="github">
  <diagram id="C5RBs43oDa-KdzZeNtuy" name="Page-1">
    <mxGraphModel dx="954" dy="642" grid="1" gridSize="10" guides="1" tooltips="1" connect="1" arrows="1" fold="1" page="1" pageScale="1" pageWidth="827" pageHeight="1169" math="0" shadow="0">
      <root>
        <mxCell id="WIyWlLk6GJQsqaUBKTNV-0" />
        <mxCell id="WIyWlLk6GJQsqaUBKTNV-1" parent="WIyWlLk6GJQsqaUBKTNV-0" />
        <mxCell id="7CEjLylCKSfH6jIW43O8-3" style="edgeStyle=orthogonalEdgeStyle;rounded=0;orthogonalLoop=1;jettySize=auto;html=1;entryX=0.5;entryY=0;entryDx=0;entryDy=0;" edge="1" parent="WIyWlLk6GJQsqaUBKTNV-1" source="7CEjLylCKSfH6jIW43O8-0" target="7CEjLylCKSfH6jIW43O8-1">
          <mxGeometry relative="1" as="geometry" />
        </mxCell>
        <mxCell id="7CEjLylCKSfH6jIW43O8-0" value="Start" style="ellipse;whiteSpace=wrap;html=1;" vertex="1" parent="WIyWlLk6GJQsqaUBKTNV-1">
          <mxGeometry x="337" y="90" width="86" height="50" as="geometry" />
        </mxCell>
        <mxCell id="7CEjLylCKSfH6jIW43O8-4" style="edgeStyle=orthogonalEdgeStyle;rounded=0;orthogonalLoop=1;jettySize=auto;html=1;entryX=0.5;entryY=0;entryDx=0;entryDy=0;" edge="1" parent="WIyWlLk6GJQsqaUBKTNV-1" source="7CEjLylCKSfH6jIW43O8-1" target="7CEjLylCKSfH6jIW43O8-2">
          <mxGeometry relative="1" as="geometry" />
        </mxCell>
        <mxCell id="7CEjLylCKSfH6jIW43O8-1" value="Input Angka" style="shape=parallelogram;perimeter=parallelogramPerimeter;whiteSpace=wrap;html=1;fixedSize=1;" vertex="1" parent="WIyWlLk6GJQsqaUBKTNV-1">
          <mxGeometry x="330" y="180" width="100" height="40" as="geometry" />
        </mxCell>
        <mxCell id="7CEjLylCKSfH6jIW43O8-8" value="" style="edgeStyle=orthogonalEdgeStyle;rounded=0;orthogonalLoop=1;jettySize=auto;html=1;" edge="1" parent="WIyWlLk6GJQsqaUBKTNV-1" source="7CEjLylCKSfH6jIW43O8-2" target="7CEjLylCKSfH6jIW43O8-7">
          <mxGeometry relative="1" as="geometry" />
        </mxCell>
        <mxCell id="7CEjLylCKSfH6jIW43O8-2" value="Faktorial = Angka" style="rounded=0;whiteSpace=wrap;html=1;" vertex="1" parent="WIyWlLk6GJQsqaUBKTNV-1">
          <mxGeometry x="320" y="260" width="120" height="40" as="geometry" />
        </mxCell>
        <mxCell id="7CEjLylCKSfH6jIW43O8-10" value="" style="edgeStyle=orthogonalEdgeStyle;rounded=0;orthogonalLoop=1;jettySize=auto;html=1;" edge="1" parent="WIyWlLk6GJQsqaUBKTNV-1" source="7CEjLylCKSfH6jIW43O8-7" target="7CEjLylCKSfH6jIW43O8-9">
          <mxGeometry relative="1" as="geometry" />
        </mxCell>
        <mxCell id="7CEjLylCKSfH6jIW43O8-7" value="Angka = Angka - 1" style="rounded=0;whiteSpace=wrap;html=1;" vertex="1" parent="WIyWlLk6GJQsqaUBKTNV-1">
          <mxGeometry x="320" y="340" width="120" height="40" as="geometry" />
        </mxCell>
        <mxCell id="7CEjLylCKSfH6jIW43O8-12" value="" style="edgeStyle=orthogonalEdgeStyle;rounded=0;orthogonalLoop=1;jettySize=auto;html=1;" edge="1" parent="WIyWlLk6GJQsqaUBKTNV-1" source="7CEjLylCKSfH6jIW43O8-9" target="7CEjLylCKSfH6jIW43O8-11">
          <mxGeometry relative="1" as="geometry" />
        </mxCell>
        <mxCell id="7CEjLylCKSfH6jIW43O8-14" value="True" style="edgeLabel;html=1;align=center;verticalAlign=middle;resizable=0;points=[];" vertex="1" connectable="0" parent="7CEjLylCKSfH6jIW43O8-12">
          <mxGeometry x="-0.0333" y="-4" relative="1" as="geometry">
            <mxPoint y="-14" as="offset" />
          </mxGeometry>
        </mxCell>
        <mxCell id="7CEjLylCKSfH6jIW43O8-16" value="" style="edgeStyle=orthogonalEdgeStyle;rounded=0;orthogonalLoop=1;jettySize=auto;html=1;" edge="1" parent="WIyWlLk6GJQsqaUBKTNV-1" source="7CEjLylCKSfH6jIW43O8-9" target="7CEjLylCKSfH6jIW43O8-15">
          <mxGeometry relative="1" as="geometry" />
        </mxCell>
        <mxCell id="7CEjLylCKSfH6jIW43O8-9" value="Angka &amp;gt; 1" style="rhombus;whiteSpace=wrap;html=1;rounded=0;" vertex="1" parent="WIyWlLk6GJQsqaUBKTNV-1">
          <mxGeometry x="340" y="440" width="80" height="80" as="geometry" />
        </mxCell>
        <mxCell id="7CEjLylCKSfH6jIW43O8-13" style="edgeStyle=orthogonalEdgeStyle;rounded=0;orthogonalLoop=1;jettySize=auto;html=1;entryX=1;entryY=0.5;entryDx=0;entryDy=0;" edge="1" parent="WIyWlLk6GJQsqaUBKTNV-1" source="7CEjLylCKSfH6jIW43O8-11" target="7CEjLylCKSfH6jIW43O8-7">
          <mxGeometry relative="1" as="geometry">
            <Array as="points">
              <mxPoint x="540" y="360" />
            </Array>
          </mxGeometry>
        </mxCell>
        <mxCell id="7CEjLylCKSfH6jIW43O8-11" value="Faktorial = Faktorial * Angka" style="whiteSpace=wrap;html=1;rounded=0;" vertex="1" parent="WIyWlLk6GJQsqaUBKTNV-1">
          <mxGeometry x="480" y="450" width="120" height="60" as="geometry" />
        </mxCell>
        <mxCell id="7CEjLylCKSfH6jIW43O8-18" style="edgeStyle=orthogonalEdgeStyle;rounded=0;orthogonalLoop=1;jettySize=auto;html=1;entryX=0.5;entryY=0;entryDx=0;entryDy=0;" edge="1" parent="WIyWlLk6GJQsqaUBKTNV-1" source="7CEjLylCKSfH6jIW43O8-15" target="7CEjLylCKSfH6jIW43O8-17">
          <mxGeometry relative="1" as="geometry" />
        </mxCell>
        <mxCell id="7CEjLylCKSfH6jIW43O8-15" value="Output Angkat Faktorial" style="shape=parallelogram;perimeter=parallelogramPerimeter;whiteSpace=wrap;html=1;fixedSize=1;rounded=0;" vertex="1" parent="WIyWlLk6GJQsqaUBKTNV-1">
          <mxGeometry x="320" y="575" width="120" height="45" as="geometry" />
        </mxCell>
        <mxCell id="7CEjLylCKSfH6jIW43O8-17" value="End" style="ellipse;whiteSpace=wrap;html=1;" vertex="1" parent="WIyWlLk6GJQsqaUBKTNV-1">
          <mxGeometry x="337" y="680" width="86" height="50" as="geometry" />
        </mxCell>
      </root>
    </mxGraphModel>
  </diagram>
</mxfile>
